HIERARCHY
ROOT Hips
{
  OFFSET 3.13124 94.3669 -3.18751
  CHANNELS  6 Xposition Yposition Zposition Zrotation Xrotation Yrotation
  JOINT LeftUpLeg
  {
    OFFSET 8.64259 1.95398 -2.38835
    CHANNELS 3 Zrotation Xrotation Yrotation
    JOINT LeftLeg
    {
      OFFSET 43.7702 0 0
      CHANNELS 3 Zrotation Xrotation Yrotation
      JOINT LeftFoot
      {
        OFFSET 40.6238 0 0
        CHANNELS 3 Zrotation Xrotation Yrotation
        JOINT LeftToeBase
        {
          OFFSET 12.7242 0 0
          CHANNELS 3 Zrotation Xrotation Yrotation
          End Site
          {
            OFFSET 0 0 0
          }
        }
      }
    }
  }
  JOINT RightUpLeg
  {
    OFFSET -8.2249 1.95398 -2.59336
    CHANNELS 3 Zrotation Xrotation Yrotation
    JOINT RightLeg
    {
      OFFSET 43.5653 0 0
      CHANNELS 3 Zrotation Xrotation Yrotation
      JOINT RightFoot
      {
        OFFSET 40.6238 0 0
        CHANNELS 3 Zrotation Xrotation Yrotation
        JOINT RightToeBase
        {
          OFFSET 12.7242 0 0
          CHANNELS 3 Zrotation Xrotation Yrotation
          End Site
          {
            OFFSET 0 0 0
          }
        }
      }
    }
  }
  JOINT Spine
  {
    OFFSET 0.165834 0.87714 6.61349
    CHANNELS 3 Zrotation Xrotation Yrotation
    JOINT Spine1
    {
      OFFSET 7.38962 1.71661e-005 0
      CHANNELS 3 Zrotation Xrotation Yrotation
      JOINT Spine2
      {
        OFFSET 11.9445 1.14441e-005 0
        CHANNELS 3 Zrotation Xrotation Yrotation
        JOINT Spine3
        {
          OFFSET 14.7254 4.19617e-005 0
          CHANNELS 3 Zrotation Xrotation Yrotation
          JOINT Spine4
          {
            OFFSET 10.9679 0 0
            CHANNELS 3 Zrotation Xrotation Yrotation
            JOINT RightShoulder
            {
              OFFSET 2.46616 -1.6653 3.69651
              CHANNELS 3 Zrotation Xrotation Yrotation
              JOINT RightArm
              {
                OFFSET 13.0012 0 0
                CHANNELS 3 Zrotation Xrotation Yrotation
                JOINT RightForeArm
                {
                  OFFSET 28.7848 1.52588e-005 0
                  CHANNELS 3 Zrotation Xrotation Yrotation
                  JOINT RightHand
                  {
                    OFFSET 26.5688 1.52588e-005 0
                    CHANNELS 3 Zrotation Xrotation Yrotation
                    End Site
                    {
                      OFFSET 0 0 0
                    }
                  }
                }
              }
            }
            JOINT LeftShoulder
            {
              OFFSET 2.38034 -1.29275 -3.75231
              CHANNELS 3 Zrotation Xrotation Yrotation
              JOINT LeftArm
              {
                OFFSET 16.3182 6.10352e-005 0
                CHANNELS 3 Zrotation Xrotation Yrotation
                JOINT LeftForeArm
                {
                  OFFSET 27.0901 0 0
                  CHANNELS 3 Zrotation Xrotation Yrotation
                  JOINT LeftHand
                  {
                    OFFSET 24.5451 1.52588e-005 0
                    CHANNELS 3 Zrotation Xrotation Yrotation
                    End Site
                    {
                      OFFSET 0 0 0
                    }
                  }
                }
              }
            }
            JOINT Neck
            {
              OFFSET 5.0226 -0.0266342 0
              CHANNELS 3 Zrotation Xrotation Yrotation
              JOINT Head
              {
                OFFSET 6.69363 2.86102e-005 0
                CHANNELS 3 Zrotation Xrotation Yrotation
                End Site
                {
                  OFFSET 0 0 0
                }
              }
            }
          }
        }
      }
    }
  }
}
MOTION
Frames:	13
Frame Time:	0.0333333
-1.7028 97.14 -11.8602 -166.83 -89.9958 -166.847 -171.057 3.22468 91.4901 -9.92694 8.65364 2.60546 63.8823 0.898962 0.441616 28.7808 5.23902e-006 4.56415e-006 168.939 2.73293 92.0455 -10.2291 -10.6509 -2.20152 63.9962 -1.04501 -0.536106 28.7808 1.57172e-005 2.85039e-005 -0.00135726 6.34017 -89.9833 14.1935 -5.68926e-006 -0.00222029 2.52259 6.37677e-006 -0.00244688 -20.0126 5.99832e-007 -0.000154523 8.30173e-005 1.27227e-014 -0.000168083 100.865 -18.5975 -85.3721 16.2349 44.6298 -42.9911 -3.26642 0.00468064 -4.91074 -5.37984 -0.320018 -0.0162341 -79.0116 -21.823 94.2879 13.9373 -38.5154 -11.7801 4.21873 38.5366 -14.5722 -1.51765 -0.0276189 4.0441 1.75312 -0.000208709 0.00140547 -7.40641 0.00460556 -0.00107585 
-1.69129 97.1591 -11.8961 -170.58 -89.9328 -170.608 -171.059 3.21587 91.4828 -9.99165 8.62247 2.60525 63.8156 0.775384 0.368849 28.7808 5.23902e-006 4.56415e-006 168.915 2.71098 92.0203 -10.2528 -10.6831 -2.18769 63.9073 -1.18271 -0.612774 28.7808 1.57172e-005 2.85039e-005 -0.00157556 6.34102 -89.9794 14.1918 0.000292555 -0.00222029 2.52087 0.000297522 -0.00244688 -20.0143 0.000324193 -0.000154523 -0.00163368 0.000324075 -0.000168083 100.725 -18.5966 -85.4686 16.2211 44.641 -42.944 -3.26642 0.00468064 -4.91074 -5.37984 -0.320018 -0.0162341 -79.0772 -21.7988 94.3633 14.1364 -38.5714 -11.6594 4.48702 39.111 -14.6855 -1.74739 -0.0459246 3.79671 1.76905 -0.00216695 0.0304491 -7.34384 0.00430708 -0.0244438 
-1.68568 97.1488 -11.9378 -138.257 -89.9105 -138.261 -171.069 3.22677 91.4898 -9.97294 8.58374 2.60498 63.8513 0.895942 0.439259 28.7808 5.23902e-006 4.56415e-006 168.935 2.75275 92.0478 -10.2874 -10.7029 -2.20244 63.9114 -1.10737 -0.569709 28.7808 1.57172e-005 2.85039e-005 0.00213388 6.36386 -89.9877 14.1461 0.00594547 -0.00254632 2.47519 0.00582841 -0.00282346 -20.06 0.0064026 -0.000154523 -0.0473126 0.00640943 -0.000168083 100.827 -18.6078 -85.4985 16.2585 44.5835 -43.0062 -3.26642 0.00468064 -4.91074 -5.37984 -0.320018 -0.0162341 -78.8603 -21.7012 94.5933 14.1185 -38.6504 -11.7432 4.64323 39.2582 -14.7662 -1.85098 -0.0531202 3.83471 2.15581 0.0166587 0.153528 -7.42401 -0.00161983 -0.132368 
-1.67352 97.1545 -11.9868 -129.392 -89.8743 -129.369 -171.083 3.19361 91.503 -9.87249 8.53349 2.60464 63.8083 0.931408 0.460681 28.7808 5.23902e-006 4.56415e-006 168.944 2.8226 92.0839 -10.3817 -10.7618 -2.21406 63.7765 -1.33379 -0.695335 28.7808 1.57172e-005 2.85039e-005 0.0134568 6.37376 -90.0122 14.1264 0.0240323 -0.00793372 2.45541 0.0236599 -0.00898582 -20.0797 0.0252994 -0.000498292 -0.0670968 0.025302 -0.000511274 100.824 -18.6216 -85.4851 16.2839 44.5499 -43.0647 -3.26642 0.00468064 -4.91074 -5.37984 -0.320018 -0.0162341 -78.825 -21.5921 94.6847 14.1138 -38.6811 -11.7545 4.72157 39.2974 -14.7729 -1.95287 -0.0612828 3.60617 2.3563 0.00642723 0.21816 -7.51185 -0.0236745 -0.123191 
-1.66498 97.1577 -12.039 -142.557 -89.8529 -142.544 -171.08 3.22303 91.4895 -9.94244 8.55753 2.6048 63.7837 0.937589 0.46243 28.7808 5.23902e-006 4.56415e-006 168.933 2.79876 92.0589 -10.3393 -10.7702 -2.20706 63.7749 -1.22579 -0.634574 28.7808 1.57172e-005 2.85039e-005 0.0162052 6.38211 -90.003 14.1096 0.029718 -0.015961 2.43871 0.0289861 -0.017253 -20.0964 0.0331368 -0.00628885 -0.0838104 0.0331378 -0.00629263 100.79 -18.6015 -85.576 16.284 44.5424 -43.0472 -3.26642 0.00468064 -4.91074 -5.37984 -0.320018 -0.0162341 -78.8141 -21.523 94.7027 14.0871 -38.6973 -11.7121 4.80007 39.3042 -14.8368 -1.90019 -0.057408 3.65386 2.40539 0.0172532 0.30329 -7.49981 -0.0267731 -0.112715 
-1.65489 97.1707 -12.0905 -165.007 -89.8379 -164.99 -171.072 3.2172 91.4915 -9.93572 8.62744 2.606 63.7333 0.932752 0.458985 28.7808 5.23902e-006 4.56415e-006 168.91 2.79565 92.0469 -10.3515 -10.772 -2.18683 63.7275 -1.30965 -0.681393 28.7808 1.57172e-005 2.85039e-005 0.0159362 6.39031 -90.0131 14.0933 0.0260527 -0.024761 2.42232 0.0249436 -0.0258926 -20.1128 0.0322878 -0.0157883 -0.100194 0.0322946 -0.0157855 100.737 -18.5396 -85.7066 16.2865 44.5107 -42.9795 -3.26642 0.00468064 -4.91074 -5.37984 -0.320018 -0.0162341 -78.821 -21.5413 94.694 14.0807 -38.7238 -11.7394 4.82251 39.4038 -14.8149 -1.92103 -0.0585942 3.72315 2.36898 0.0567225 0.419202 -7.41889 -0.00379512 -0.182791 
-1.63894 97.1719 -12.1424 179.31 -89.8558 179.338 -171.098 3.23225 91.4823 -9.85887 8.65051 2.61567 63.6904 0.982984 0.48827 28.7808 5.23902e-006 4.56415e-006 168.937 2.88209 92.075 -10.427 -10.6808 -2.20848 63.6166 -1.31933 -0.684633 28.7808 1.57172e-005 2.85039e-005 0.0222999 6.39013 -90.0303 14.0933 0.0356712 -0.0273446 2.42239 0.0344409 -0.0288951 -20.1128 0.042245 -0.0153503 -0.100126 0.042233 -0.0153661 100.719 -18.569 -85.7504 16.3135 44.4459 -42.9619 -3.26642 0.00468064 -4.91074 -5.37984 -0.320018 -0.0162341 -78.8256 -21.5638 94.6839 14.0391 -38.6837 -11.8274 4.84503 39.4059 -14.8811 -2.04984 -0.0677141 3.72173 2.40144 0.0539791 0.388299 -7.52832 -0.000724915 -0.203014 
-1.63011 97.1682 -12.1904 154.372 -89.8337 154.39 -171.097 3.25992 91.47 -9.85178 8.7074 2.59828 63.6707 1.00897 0.502917 28.7808 5.23902e-006 4.56415e-006 168.909 2.89604 92.0514 -10.411 -10.7145 -2.18737 63.6148 -1.41215 -0.737586 28.7808 1.57172e-005 2.85039e-005 0.023456 6.38885 -90.0314 14.0861 0.0382843 -0.0245327 2.41514 0.0371707 -0.0262018 -20.12 0.043884 -0.0118948 -0.107379 0.0438842 -0.0118949 100.692 -18.5847 -85.8218 16.3484 44.346 -42.9141 -3.26642 0.00468064 -4.91074 -5.37984 -0.320018 -0.0162341 -78.8159 -21.5934 94.7012 13.8643 -38.6773 -12.0394 4.83926 39.3656 -14.8546 -2.00263 -0.0646478 3.62763 2.46683 0.0373369 0.337245 -7.68115 -0.00626426 -0.233318 
-1.6221 97.1972 -12.2434 150.47 -89.7723 150.464 -171.084 3.3684 91.4548 -10.0891 8.71226 2.60393 63.5773 0.666755 0.299825 28.7808 5.23902e-006 4.56415e-006 168.877 2.82756 91.9917 -10.2997 -10.6518 -2.14286 63.5856 -1.25764 -0.650661 28.7808 1.57172e-005 2.85039e-005 0.025592 6.38704 -90.0007 14.0817 0.045485 -0.0376298 2.41076 0.0437364 -0.0396011 -20.1244 0.0546864 -0.0222139 -0.111764 0.05469 -0.0222179 100.63 -18.6296 -85.9734 16.3445 44.3452 -42.8879 -3.26642 0.00468064 -4.91074 -5.37984 -0.320018 -0.0162341 -78.8864 -21.7582 94.5513 13.9021 -38.6462 -12.0091 4.62044 38.9781 -14.8322 -1.79678 -0.0483567 4.0109 2.35295 0.0134028 0.384311 -7.64569 -0.0323351 -0.334762 
-1.61218 97.1881 -12.283 134.738 -89.8072 134.771 -171.121 3.32634 91.4599 -9.81533 8.71283 2.60816 63.556 0.866502 0.419374 28.7808 5.23902e-006 4.56415e-006 168.919 2.98898 92.0744 -10.4459 -10.6226 -2.17522 63.4102 -1.56487 -0.821814 28.7808 1.57172e-005 2.85039e-005 0.031341 6.38534 -90.0468 14.09 0.0484258 -0.0444505 2.419 0.0472461 -0.0465396 -20.1162 0.0595618 -0.0278747 -0.103506 0.059558 -0.0278739 100.611 -18.6724 -86.019 16.4237 44.2 -42.9646 -3.26642 0.00468064 -4.91074 -5.37984 -0.320018 -0.0162341 -78.8541 -21.8304 94.6265 13.712 -38.5281 -12.1701 4.65521 39.1601 -14.8191 -2.06839 -0.0687815 3.81738 2.60577 -0.00792378 0.304349 -8.02501 -0.0447238 -0.247786 
-1.60911 97.201 -12.3115 125.904 -89.7845 125.932 -171.113 3.37896 91.454 -9.85429 8.76157 2.61118 63.5016 0.762218 0.356438 28.7808 5.23902e-006 4.56415e-006 168.903 2.98654 92.0506 -10.3826 -10.6079 -2.14745 63.3925 -1.45678 -0.760229 28.7808 1.57172e-005 2.85039e-005 0.0291781 6.3852 -90.0343 14.1036 0.0476658 -0.0511948 2.43265 0.0500975 -0.0531211 -20.1025 0.0621446 -0.0353208 -0.0898543 0.0621405 -0.0353364 100.55 -18.7879 -86.1607 16.4562 44.1364 -42.9859 -3.26642 0.00468064 -4.91074 -5.37984 -0.320018 -0.0162341 -78.9062 -21.9358 94.5174 13.7213 -38.4117 -12.0687 4.46486 38.984 -14.7247 -2.13177 -0.0731215 3.90445 2.51839 -0.0116822 0.228258 -8.04457 -0.0388041 -0.204647 
-1.61911 97.2272 -12.3245 136.496 -89.7304 136.563 -171.067 3.27683 91.5064 -9.7675 8.86584 2.60474 63.486 0.911754 0.443548 28.7808 5.23902e-006 4.56415e-006 168.886 2.9515 92.0733 -10.4521 -10.6802 -2.13496 63.2508 -1.61573 -0.848613 28.7808 1.57172e-005 2.85039e-005 0.0314051 6.38722 -90.0567 14.0948 0.0446337 -0.0608033 2.42385 0.0519606 -0.0626865 -20.1113 0.0637155 -0.0447353 -0.0986666 0.0637141 -0.0447332 100.492 -18.8779 -86.2995 16.4918 44.0567 -42.9869 -3.26642 0.00468064 -4.91074 -5.37984 -0.320018 -0.0162341 -78.9351 -22.0584 94.4554 13.7308 -38.3399 -11.9839 4.29699 38.6851 -14.665 -2.19229 -0.0773059 4.02628 2.48421 -0.0143436 0.154572 -8.00326 -0.0307845 -0.160673 
-1.61271 97.2059 -12.353 124.876 -89.7492 124.874 -171.124 3.40069 91.4243 -9.88305 8.71118 2.59971 63.4724 0.685532 0.31107 28.7808 5.23902e-006 4.56415e-006 168.88 2.93042 92.0093 -10.2588 -10.5644 -2.12545 63.4534 -1.35779 -0.70625 28.7808 1.57172e-005 2.85039e-005 0.0281411 6.39106 -90.0264 14.106 0.0410455 -0.0625249 2.43507 0.0525055 -0.0643329 -20.1001 0.064703 -0.0469449 -0.0874551 0.0647057 -0.0469433 100.459 -18.8636 -86.378 16.5729 43.8784 -42.9826 -3.26642 0.00468064 -4.91074 -5.37984 -0.320018 -0.0162341 -78.9653 -22.1618 94.3985 13.7331 -38.2839 -11.901 4.27688 38.7269 -14.6423 -2.27604 -0.0834275 4.0226 2.61499 0.0203721 0.236596 -8.13109 -0.00562425 -0.266969 
